<?xml version="1.0" encoding="UTF-8"?>
<svg id="Layer_1" data-name="Layer 1" xmlns="http://www.w3.org/2000/svg" viewBox="0 0 513.96 143.56">
  <defs>
    <style>
      .cls-1 {
      fill: #69df9f;
      }

      .cls-3 {
      letter-spacing: -.02em;
      }

      .cls-4 {
      letter-spacing: -.01em;
      }

      .cls-5 {
      fill: #f2f2f2;
      font-family: NotoSansSC-Regular-83pv-RKSJ-H, 'Noto Sans SC';
      font-size: 95px;
      }
    </style>
  </defs>
  <g>
    <path class="cls-1"
      d="m110.81,14.29c0,1.51-1.23,2.74-2.75,2.74h-61.76v44.37c0,1.52-1.23,2.75-2.75,2.75s-2.74-1.23-2.74-2.75V14.29c0-1.52,1.23-2.75,2.74-2.75h64.51c.18,0,.36.03.52.05.08.01.15.05.23.06.12.03.22.08.32.1.14.06.28.14.41.23.03,0,.04.01.05.03.14.12.27.2.38.32l.2.2c.4.49.63,1.1.63,1.75Z" />
    <path class="cls-1"
      d="m135.16,38.31v90.95c0,1.51-1.23,2.75-2.75,2.75H43.55c-1.51,0-2.74-1.24-2.74-2.75v-23.07c0-1.52,1.23-2.76,2.74-2.76s2.75,1.24,2.75,2.76v20.34h83.38V38.31c0-1.52,1.23-2.75,2.74-2.75.67,0,1.27.24,1.75.64l.18.17h.01c.13.13.24.27.33.41.15.23.27.47.35.73.09.26.13.54.13.81Z" />
    <path class="cls-1"
      d="m135.04,37.51c-.08-.26-.19-.5-.35-.73-.09-.14-.2-.28-.33-.41h-.01l-.18-.17-23.98-23.66-.2-.2c-.12-.12-.24-.2-.38-.32-.01-.01-.03-.03-.05-.03-.13-.09-.27-.17-.41-.23-.1-.03-.2-.08-.32-.1-.08-.01-.15-.05-.23-.06-.17-.03-.35-.05-.52-.05-.36,0-.72.08-1.06.22-1.02.42-1.69,1.42-1.69,2.53v24.02c0,1.51,1.23,2.74,2.75,2.74h24.35c1.11,0,2.11-.67,2.53-1.7.24-.59.27-1.25.09-1.84Zm-24.24-1.93v-14.73l14.92,14.73h-14.92Z" />
    <path class="cls-1"
      d="m113.65,58.68h-51.34c-1.51,0-2.74,1.22-2.74,2.74v44.77c0,1.52,1.23,2.74,2.74,2.74h51.34c1.52,0,2.75-1.22,2.75-2.74v-44.77c0-1.52-1.23-2.74-2.75-2.74Zm-2.74,44.75h-45.87v-39.28h45.87v39.28Z" />
    <path class="cls-1"
      d="m90.73,61.41v44.77c0,1.51-1.23,2.74-2.75,2.74s-2.74-1.23-2.74-2.74v-44.77c0-1.43,1.07-2.6,2.46-2.74.09-.01.19-.01.28-.01s.19,0,.28.01c1.39.14,2.47,1.31,2.47,2.74Z" />
    <path class="cls-1"
      d="m113.65,79.08h-51.34c-1.52,0-2.74-1.23-2.74-2.74s1.23-2.74,2.74-2.74h51.34c1.52,0,2.74,1.23,2.74,2.74s-1.23,2.74-2.74,2.74Z" />
    <path class="cls-1"
      d="m113.65,94h-51.34c-1.52,0-2.74-1.23-2.74-2.74s1.23-2.74,2.74-2.74h51.34c1.52,0,2.74,1.23,2.74,2.74s-1.23,2.74-2.74,2.74Z" />
    <path class="cls-1"
      d="m71.38,61.4c0,1.52-1.23,2.75-2.75,2.75H22.75c-1.52,0-2.75-1.23-2.75-2.75s1.23-2.73,2.75-2.73h45.88c1.52,0,2.75,1.22,2.75,2.73Z" />
    <path class="cls-1"
      d="m73.87,79.08H13.29c-1.52,0-2.74-1.23-2.74-2.74s1.23-2.74,2.74-2.74h60.58c1.52,0,2.74,1.23,2.74,2.74s-1.23,2.74-2.74,2.74Z" />
    <path class="cls-1"
      d="m84.31,94h-49.6c-1.52,0-2.74-1.23-2.74-2.74s1.23-2.74,2.74-2.74h49.6c1.52,0,2.74,1.23,2.74,2.74s-1.23,2.74-2.74,2.74Z" />
    <path class="cls-1"
      d="m76.62,106.19c0,1.51-1.23,2.73-2.75,2.73H24.94c-1.51,0-2.74-1.22-2.74-2.73s1.23-2.76,2.74-2.76h48.92c1.52,0,2.75,1.24,2.75,2.76Z" />
    <path class="cls-1"
      d="m23.79,94h-4.68c-1.52,0-2.74-1.23-2.74-2.74s1.23-2.74,2.74-2.74h4.68c1.52,0,2.74,1.23,2.74,2.74s-1.23,2.74-2.74,2.74Z" />
    <path class="cls-1"
      d="m11.64,64.15h-4.19c-1.52,0-2.74-1.23-2.74-2.74s1.23-2.74,2.74-2.74h4.19c1.52,0,2.74,1.23,2.74,2.74s-1.23,2.74-2.74,2.74Z" />
  </g>
  <text class="cls-5" transform="translate(151.94 109.52)">
    <tspan x="0" y="0">She</tspan>
    <tspan class="cls-4" x="167.01" y="0">e</tspan>
    <tspan class="cls-3" x="218.59" y="0">t</tspan>
    <tspan x="252.13" y="0">ah</tspan>
  </text>
</svg>